<?xml version="1.0" encoding="utf-8"?>
<!-- Generator: Adobe Illustrator 27.0.1, SVG Export Plug-In . SVG Version: 6.00 Build 0)  -->
<svg version="1.1" id="Ebene_1" xmlns="http://www.w3.org/2000/svg" xmlns:xlink="http://www.w3.org/1999/xlink" x="0px" y="0px"
	 viewBox="0 0 500 500" style="enable-background:new 0 0 500 500;" xml:space="preserve">
<style type="text/css">
	.st0{fill:#FFFFFF;}
</style>
<g id="Donation">
	<path class="st0" d="M423.09,209.06h-92.71l27.66-38.08v-70.21l-41.27-56.8L250,22.27l-66.77,21.7l-41.27,56.8v70.21l27.66,38.08
		H76.91v87.17h23.52v204.53h299.14V296.23h23.52V209.06z M162.19,164.4v-57.06l33.54-46.16L250,43.55l54.27,17.63l33.54,46.16v57.06
		l-32.44,44.65H194.63L162.19,164.4z M379.34,480.52H120.67V296.23h258.67V480.52z M402.85,275.99h-3.28H100.43h-3.28v-46.7h87.17
		h131.35h87.17V275.99z"/>
	<polygon class="st0" points="260.12,69.27 239.88,69.27 239.88,89.51 217.46,89.51 217.46,142.56 262.3,142.56 262.3,155.13 
		260.12,155.13 239.88,155.13 217.46,155.13 217.46,175.37 239.88,175.37 239.88,195.6 260.12,195.6 260.12,175.37 282.54,175.37 
		282.54,122.32 237.7,122.32 237.7,109.74 239.88,109.74 260.12,109.74 282.54,109.74 282.54,89.51 260.12,89.51 	"/>
	<path class="st0" d="M325.32,370.54l-18.53-45h-41l-17.66,17.66l-17.66-17.66h-41l-18.53,45l77.18,88.21L325.32,370.54z
		 M201.87,344.03h20.96l25.31,25.31l25.31-25.31h20.96l9.45,22.95l-55.72,63.68l-55.72-63.68L201.87,344.03z"/>
</g>
</svg>
