<?xml version="1.0" encoding="utf-8"?>
<!-- Generator: Adobe Illustrator 27.0.1, SVG Export Plug-In . SVG Version: 6.00 Build 0)  -->
<svg version="1.1" id="Ebene_1" xmlns="http://www.w3.org/2000/svg" xmlns:xlink="http://www.w3.org/1999/xlink" x="0px" y="0px"
	 viewBox="0 0 500 500" style="enable-background:new 0 0 500 500;" xml:space="preserve">
<style type="text/css">
	.st0{fill:#FFFFFF;}
</style>
<g id="Owner">
	<path class="st0" d="M251.96,290.26l-14.54-32.73l14.58-17l-19.75-16.94l-17.22,20.08l-31.66,7.79l-29.02-7.47l-27.18-42.83V174
		l21.4-26.24l38.82,19.63l38.17,2.21l1.51-25.98l-32.76-1.9l-52.67-26.63l-28.15,34.53l-9.83-29.52l24.12-19.1l20.77-27.7
		l85.52,16.92l5.05-25.52L137.54,44.61L108.97,82.7L73.2,111.03l27.96,83.95v13.73l30.08,47.39l-16.77,34.06l-58.82,25.77L0,455.39
		h366.6l-55.64-139.47L251.96,290.26z M38.39,429.37l37.45-93.88l57.75-25.3l19.16-38.91l29.74,10.04l32.5-10.14l17.29,38.92
		l58.47,25.42l37.44,93.86H38.39z"/>
	<path class="st0" d="M344.45,48.76l-91.71,52.95v105.9l91.71,52.95l91.71-52.95v-105.9L344.45,48.76z M331.44,223.01l-52.68-30.42
		v-60.84l52.68,30.42V223.01z M344.45,139.64l-52.69-30.42l52.69-30.42l52.69,30.42L344.45,139.64z M410.14,192.59l-52.68,30.42
		v-60.84l52.68-30.42V192.59z"/>
</g>
</svg>
