<?xml version="1.0" encoding="utf-8"?>
<!-- Generator: Adobe Illustrator 27.0.1, SVG Export Plug-In . SVG Version: 6.00 Build 0)  -->
<svg version="1.1" id="Ebene_1" xmlns="http://www.w3.org/2000/svg" xmlns:xlink="http://www.w3.org/1999/xlink" x="0px" y="0px"
	 viewBox="0 0 484.5 133.1" style="enable-background:new 0 0 484.5 133.1;" xml:space="preserve">
<style type="text/css">
	.st0{display:none;}
	.st1{display:inline;}
	.st2{fill:#1C39BB;}
	.st3{clip-path:url(#SVGID_00000182528037302368259450000015383820835111731354_);}
	.st4{fill:#282828;}
	.st5{display:none;fill:#FFFFFF;}
</style>
<g id="Ebene_2_00000145052849288842258680000011918343299463994244_" class="st0">
	<rect class="st1" width="484.5" height="133.1"/>
</g>
<g id="a">
	<g>
		<g>
			<path class="st2" d="M118.9,50.9c-0.5-0.5-1.1-1.1-1.8-1.5c-1.3-0.9-2.7-1.6-4.2-2.1s-3.2-0.8-4.8-0.8c-3.3,0-6.2,0.8-8.7,2.5
				s-4.5,4-6,6.9c-1.4,2.9-2.2,6.2-2.2,10c0,3.7,0.7,7.1,2.2,10c1.4,2.9,3.4,5.2,5.9,6.9c2.5,1.7,5.4,2.5,8.6,2.5
				c1.7,0,3.4-0.2,4.9-0.7c1.6-0.5,3-1.1,4.2-2c0.9-0.6,1.8-1.4,2.4-2.1l0.3,4.1h10.4v-52h-11.3v18.3H118.9z M118.2,71.1
				c-0.7,1.5-1.6,2.7-2.9,3.5s-2.8,1.3-4.5,1.3s-3.2-0.4-4.5-1.3c-1.2-0.8-2.2-2-2.9-3.5c-0.7-1.5-1.1-3.2-1.1-5.3
				c0-2.1,0.4-3.8,1.1-5.3s1.7-2.7,2.9-3.5c1.2-0.8,2.7-1.3,4.5-1.3c1.7,0,3.2,0.4,4.5,1.3c1.3,0.8,2.2,2,2.9,3.5
				c0.7,1.5,1,3.3,1,5.3C119.2,67.9,118.9,69.6,118.2,71.1z"/>
			<path class="st2" d="M168.8,51.8c-1.6-1.7-3.5-3-5.6-3.9c-2.2-0.9-4.6-1.4-7.2-1.4c-2.8,0-5.3,0.5-7.6,1.4c-2.3,1-4.3,2.3-6,4.1
				s-3,3.8-3.9,6.2s-1.4,5-1.4,7.8c0,3.7,0.8,7,2.5,9.8c1.7,2.9,4,5.1,7.1,6.8c3,1.7,6.6,2.5,10.7,2.5c1.7,0,3.4-0.2,5.1-0.6
				c1.7-0.4,3.4-1,5-1.8s3.2-1.8,4.6-3.1l-5.3-7.4c-1.4,1.1-2.8,1.9-4,2.4s-2.7,0.7-4.2,0.7c-2.3,0-4.3-0.4-5.9-1.3
				c-1.7-0.8-2.9-2-3.8-3.5c-0.4-0.7-0.7-1.5-0.9-2.3h25.5l0.1-3c0.1-2.7-0.3-5.2-1.1-7.5C171.6,55.4,170.4,53.4,168.8,51.8z
				 M148.6,60.1c0.7-1.4,1.6-2.4,2.9-3.2c1.3-0.7,2.8-1.1,4.7-1.1c1.3,0,2.5,0.3,3.5,0.8s1.9,1.2,2.5,2.1c0.6,0.9,1,2,1.1,3.1v0.1
				H148C148.1,61.3,148.3,60.6,148.6,60.1z"/>
			<path class="st2" d="M202.6,46.4c-2,0-3.8,0.5-5.5,1.4s-3.2,2.2-4.5,3.8c-0.3,0.4-0.6,0.8-0.9,1.3l-0.2-5.7h-10.7v37.2H192V65.8
				c0-1.1,0.2-2.1,0.5-3s0.8-1.7,1.4-2.3c0.6-0.7,1.4-1.2,2.2-1.5c0.9-0.4,1.8-0.5,2.9-0.5c0.9,0,1.8,0.1,2.7,0.3s1.6,0.5,2.1,0.8
				l3.1-12.4c-0.6-0.2-1.3-0.4-2-0.5C204.2,46.5,203.5,46.4,202.6,46.4z"/>
			<path class="st2" d="M238.4,66.7c-0.9-1-2.2-1.9-3.8-2.7c-1.6-0.7-3.5-1.4-5.7-2c-1.8-0.5-3.2-0.9-4.2-1.3
				c-1-0.4-1.8-0.7-2.2-0.9c-0.5-0.3-0.8-0.6-1.1-1.1c-0.3-0.4-0.4-0.9-0.4-1.3c0-0.5,0.1-0.9,0.3-1.2c0.2-0.4,0.5-0.7,0.8-0.9
				c0.4-0.3,0.8-0.4,1.4-0.6c0.5-0.1,1.2-0.2,1.9-0.2c0.9,0,2,0.2,3.1,0.6c1.1,0.4,2.2,0.9,3.3,1.5s2,1.3,2.8,2.1l5.9-6.6
				c-1.3-1.2-2.7-2.2-4.3-3s-3.4-1.5-5.2-2c-1.9-0.5-3.8-0.7-5.9-0.7c-1.9,0-3.8,0.3-5.6,0.8s-3.4,1.3-4.8,2.3
				c-1.4,1-2.5,2.2-3.3,3.6c-0.8,1.4-1.2,3-1.2,4.7c0,1.5,0.3,2.8,0.8,4s1.2,2.3,2.2,3.3s2.3,1.9,4,2.7c1.6,0.8,3.5,1.4,5.7,2
				c1.5,0.4,2.8,0.8,3.8,1.1c1,0.3,1.7,0.6,2.1,0.8c0.8,0.5,1.3,1.2,1.3,2.2c0,0.5-0.1,0.9-0.3,1.2c-0.2,0.4-0.5,0.7-0.8,0.9
				c-0.3,0.3-0.8,0.5-1.3,0.6s-1.1,0.2-1.8,0.2c-1.6,0-3.4-0.3-5.2-1s-3.5-1.7-4.9-3.2l-6.8,5.9c1.6,2,3.8,3.5,6.6,4.7
				s6,1.8,9.6,1.8c3,0,5.7-0.5,8-1.6s4.2-2.5,5.5-4.3s2-4,2-6.3c0-1.2-0.2-2.3-0.6-3.4C239.7,68.4,239.2,67.5,238.4,66.7z"/>
			<path class="st2" d="M276.6,48.2c-1.9-1.1-4.3-1.7-7.1-1.7c-2.1,0-4,0.4-5.9,1.3c-1.9,0.8-3.5,2-4.8,3.3
				c-0.2,0.2-0.4,0.4-0.5,0.6V32.6h-11v51.9c0.6,0,1.4,0,2.3,0c0.9,0,2.1,0,3.4,0h5.5V62.1c0-0.9,0.2-1.7,0.5-2.5
				c0.3-0.7,0.8-1.4,1.4-2s1.3-1,2.2-1.3c0.8-0.3,1.8-0.5,2.7-0.5c1.3,0,2.3,0.2,3.2,0.7c0.9,0.5,1.5,1.2,1.9,2.2s0.6,2.2,0.6,3.7
				v21.9h11.3V61.6c0-3.3-0.5-6-1.5-8.3C280,51,278.5,49.3,276.6,48.2z"/>
			<path class="st2" d="M317,51.8c-0.7-0.9-1.4-1.7-2.3-2.4c-1.1-0.9-2.4-1.6-3.9-2.1s-3.1-0.8-4.9-0.8c-3.2,0-6.1,0.8-8.6,2.5
				s-4.5,3.9-6,6.8c-1.4,2.9-2.2,6.2-2.2,10c0,3.7,0.7,7,2.2,9.9c1.4,2.9,3.4,5.2,5.9,6.9c2.5,1.7,5.2,2.5,8.4,2.5
				c1.7,0,3.3-0.3,4.8-0.8s2.8-1.2,4.1-2.1c0.9-0.7,1.7-1.4,2.4-2.2v4.4h11.4V47.2H317V51.8z M316.1,71c-0.7,1.5-1.7,2.6-2.9,3.4
				c-1.3,0.8-2.8,1.2-4.5,1.2s-3.1-0.4-4.4-1.2c-1.2-0.8-2.2-1.9-2.9-3.4s-1.1-3.2-1.1-5.2s0.4-3.7,1.1-5.2s1.7-2.6,2.9-3.4
				c1.2-0.8,2.7-1.2,4.4-1.2c1.7,0,3.2,0.4,4.5,1.2s2.2,2,2.9,3.4c0.7,1.5,1.1,3.2,1.1,5.2C317.1,67.8,316.8,69.5,316.1,71z"/>
			<path class="st2" d="M355.7,66.9c-0.4,1.1-0.7,2.1-1.1,3.1c-0.1-0.4-0.2-0.7-0.3-1.1c-0.4-1.1-0.8-2.1-1.2-3l-7.8-18.7h-12.7
				l16.6,36.2l-7.3,17.1H353l6.4-16.1l15.8-37.2h-12.8L355.7,66.9z"/>
			<path class="st2" d="M405.1,51.8c-0.7-0.9-1.4-1.7-2.3-2.4c-1.1-0.9-2.4-1.6-3.9-2.1s-3.1-0.8-4.9-0.8c-3.2,0-6.1,0.8-8.6,2.5
				s-4.5,3.9-6,6.8c-1.4,2.9-2.2,6.2-2.2,10c0,3.7,0.7,7,2.2,9.9c1.4,2.9,3.4,5.2,5.9,6.9c2.5,1.7,5.2,2.5,8.4,2.5
				c1.7,0,3.3-0.3,4.8-0.8s2.8-1.2,4.1-2.1c0.9-0.7,1.7-1.4,2.4-2.2v4.4h11.4V47.2h-11.1v4.6H405.1z M404.2,71
				c-0.7,1.5-1.7,2.6-2.9,3.4c-1.3,0.8-2.8,1.2-4.5,1.2s-3.1-0.4-4.4-1.2c-1.2-0.8-2.2-1.9-2.9-3.4s-1.1-3.2-1.1-5.2
				s0.4-3.7,1.1-5.2s1.7-2.6,2.9-3.4c1.2-0.8,2.7-1.2,4.4-1.2c1.7,0,3.2,0.4,4.5,1.2s2.2,2,2.9,3.4c0.7,1.5,1.1,3.2,1.1,5.2
				C405.2,67.8,404.9,69.5,404.2,71z"/>
			<path class="st2" d="M459.8,53.3c-1-2.3-2.4-4-4.3-5.1s-4.3-1.7-7.1-1.7c-2.1,0-4,0.4-5.9,1.3c-1.9,0.8-3.5,2-4.8,3.3
				c-0.2,0.2-0.5,0.5-0.7,0.8l-0.2-4.6h-10.7v37.2c0.6,0,1.4,0,2.3,0s2.1,0,3.4,0h5.5V62.1c0-0.9,0.2-1.7,0.5-2.5
				c0.3-0.7,0.8-1.4,1.4-2s1.3-1,2.2-1.3c0.8-0.3,1.8-0.5,2.7-0.5c1.3,0,2.3,0.2,3.2,0.7c0.9,0.5,1.5,1.2,1.9,2.2s0.6,2.2,0.6,3.7
				v21.9h11.3V61.6C461.2,58.3,460.7,55.5,459.8,53.3z"/>
		</g>
		<g>
			<g>
				<defs>
					<path id="SVGID_1_" d="M75.1,45.4v26.2c0,7.1-5.7,12.8-12.8,12.8H36.1c-7.1,0-12.8-5.7-12.8-12.8V45.4
						c0-7.1,5.7-12.8,12.8-12.8h26.2C69.4,32.6,75.1,38.3,75.1,45.4z"/>
				</defs>
				<clipPath id="SVGID_00000068636078362697953300000003762041621576466834_">
					<use xlink:href="#SVGID_1_"  style="overflow:visible;"/>
				</clipPath>
				<g style="clip-path:url(#SVGID_00000068636078362697953300000003762041621576466834_);">
					<polygon class="st4" points="23.3,84.4 28.5,84.4 23.3,77.6 					"/>
					<path class="st2" d="M75.1,32.6H23.3v27.3c4.3,0.3,8-0.1,9.8-1.6c-2.6-1.3-4.3-3.9-4.3-6.9c0-4.3,3.5-7.7,7.7-7.7
						c4.3,0,7.7,3.5,7.7,7.7v0.1c0.6,0,1.1,0,1.7,0.1c0-0.1,0-0.1,0-0.2c0-2.7-1.2-5.1-3.1-6.8c2-2.1,5.5-2.7,8.8-0.2
						c2.6,3.4,1.8,7-0.5,9c0.8,0.5,1.6,1.1,2.3,1.8c3.4,3.5,7.5,6.3,9.8,7.8c0.9,0.6,1,1.9,0.1,2.6c-11.5,8.7-18.5,1.1-21.9,10.2
						c-1.3,3.4-0.8,6.3,0.5,8.7h33.3V32.6H75.1z"/>
					<path class="st5" d="M33.8,56.2l-1-1.3C32.9,55.3,33.3,55.8,33.8,56.2z"/>
					<path class="st5" d="M33.8,56.2L49,76.3V60.6C43.2,60.2,36.4,58.4,33.8,56.2z"/>
					<path class="st5" d="M62.7,94.3l10.4-4.8c0,0-5.4-2.6-7.7-7.1H53.6L62.7,94.3z"/>
					<path class="st5" d="M65,74.6c3-8,9.2-1.3,19.3-9c0.8-0.6,0.7-1.7-0.1-2.3c-2.1-1.3-5.7-3.9-8.7-6.9c-0.6-0.6-1.3-1.1-2-1.6
						c-0.9,0.8-2.2,1.3-3.5,1.3c-0.6,0-1.1-0.1-1.6-0.3c0.3-0.8,0.5-1.7,0.5-2.7c-0.5-0.1-1-0.1-1.5-0.1c0.1,4-3,7-6.7,7
						c-1.1,0-2.1-0.3-3-0.7c-1.6,1.3-4.9,1.6-8.7,1.4v15.6l4.6,6h11.8C64.3,80.2,63.9,77.6,65,74.6z M70.5,57.6c1.1,0,2,0.9,2,2
						s-0.9,2-2,2s-2-0.9-2-2S69.4,57.6,70.5,57.6z"/>
					<path class="st2" d="M47.6,60.9c1.3,0,2.3-1,2.3-2.3s-1-2.3-2.3-2.3s-2.3,1-2.3,2.3S46.3,60.9,47.6,60.9z"/>
					<path class="st5" d="M58.3,58.6c2.3-3.6,5.8-5.3,9.2-5.4v-0.1c0-3.8-3-6.8-6.8-6.8s-6.8,3-6.8,6.8c0,2.7,1.6,5,3.8,6.1
						C57.9,59.1,58.1,58.9,58.3,58.6z"/>
					<path class="st5" d="M67.5,53.2c-3.4,0.1-6.9,1.8-9.2,5.4c-0.2,0.2-0.4,0.4-0.6,0.6c0.9,0.4,1.9,0.7,3,0.7
						C64.4,60,67.5,57,67.5,53.2z"/>
					<path class="st5" d="M74,47c-2.9-2.2-6-1.6-7.8,0.2c1.7,1.5,2.7,3.6,2.7,6c0,0.1,0,0.1,0,0.2c1.6,0.2,3.2,0.7,4.6,1.6
						C75.6,53.2,76.3,50,74,47z"/>
					<path class="st5" d="M70.1,56.2c1.4,0,2.6-0.5,3.5-1.3c-1.4-0.9-3-1.4-4.6-1.6c0,0.9-0.2,1.8-0.5,2.7
						C69,56.1,69.5,56.2,70.1,56.2z"/>
				</g>
			</g>
		</g>
	</g>
</g>
</svg>
