<?xml version="1.0" encoding="utf-8"?>
<!-- Generator: Adobe Illustrator 27.0.1, SVG Export Plug-In . SVG Version: 6.00 Build 0)  -->
<svg version="1.1" id="Ebene_1" xmlns="http://www.w3.org/2000/svg" xmlns:xlink="http://www.w3.org/1999/xlink" x="0px" y="0px"
	 viewBox="0 0 500 500" style="enable-background:new 0 0 500 500;" xml:space="preserve">
<style type="text/css">
	.st0{fill:#FFFFFF;}
</style>
<g id="Discord">
	<g id="Discord_Logos">
		<g id="Discord_Logo_-_Large_-_White">
			<path class="st0" d="M423.55,80.13c-32.85-15.04-67.53-25.71-103.15-31.74c-4.87,8.71-9.29,17.68-13.21,26.86
				c-37.95-5.72-76.53-5.72-114.48,0c-3.93-9.18-8.34-18.14-13.21-26.86c-35.65,6.08-70.35,16.77-103.23,31.82
				C10.97,176.79-6.73,270.98,2.12,363.83l0,0c38.23,28.25,81.02,49.73,126.51,63.51c10.24-13.78,19.31-28.39,27.1-43.69
				c-14.79-5.53-29.07-12.34-42.67-20.37c3.58-2.6,7.08-5.27,10.46-7.87c80.11,37.67,172.84,37.67,252.95,0
				c3.42,2.79,6.92,5.47,10.46,7.87c-13.62,8.04-27.93,14.87-42.75,20.41c7.78,15.29,16.84,29.9,27.1,43.65
				c45.53-13.73,88.35-35.2,126.59-63.47l0,0C508.26,256.19,480.14,162.87,423.55,80.13z M166.94,306.73
				c-24.66,0-45.03-22.38-45.03-49.91s19.66-50.1,44.95-50.1s45.5,22.57,45.07,50.1C211.5,284.35,192.07,306.73,166.94,306.73z
				 M333.06,306.73c-24.7,0-44.99-22.38-44.99-49.91s19.66-50.1,44.99-50.1c25.33,0,45.38,22.57,44.95,50.1
				S358.19,306.73,333.06,306.73z"/>
		</g>
	</g>
</g>
</svg>
