<?xml version="1.0" encoding="utf-8"?>
<!-- Generator: Adobe Illustrator 27.0.1, SVG Export Plug-In . SVG Version: 6.00 Build 0)  -->
<svg version="1.1" id="Ebene_1" xmlns="http://www.w3.org/2000/svg" xmlns:xlink="http://www.w3.org/1999/xlink" x="0px" y="0px"
	 viewBox="0 0 1920 1200" style="enable-background:new 0 0 1920 1200;" xml:space="preserve">
<style type="text/css">
	.st0{fill:none;stroke:#1E3139;stroke-width:4.1375;}
</style>
<g>
	<g transform="translate(874 40)">
		<path class="st0" d="M482.9,251l62.68,36.2v72.41l-62.68,36.2l-62.68-36.2V287.2L482.9,251z"/>
	</g>
	<g transform="translate(182 66)">
		<path class="st0" d="M147,234.64l86.06,49.65v99.3L147,433.24l-86.06-49.65v-99.3L147,234.64z"/>
	</g>
	<g transform="translate(182 240)">
		<path class="st0" d="M1434.78,528.91l60.82,35.17v70.34l-60.82,35.17l-60.82-35.17v-70.34L1434.78,528.91z"/>
	</g>
	<g transform="translate(795 126)">
		<path class="st0" d="M-342.34,627.81l57.3,33.1v66.2l-57.3,33.1l-57.3-33.1v-66.2L-342.34,627.81z"/>
	</g>
	<g transform="translate(648 344)">
		<path class="st0" d="M228.25,272.1l71.58,41.37v82.75l-71.58,41.37l-71.58-41.37v-82.75L228.25,272.1z"/>
	</g>
	<g transform="translate(794 410)">
		<path class="st0" d="M42.59-90.8l57.3,33.1V8.5l-57.3,33.1l-57.3-33.1v-66.2L42.59-90.8z"/>
	</g>
</g>
</svg>
