<?xml version="1.0" encoding="utf-8"?>
<!-- Generator: Adobe Illustrator 27.0.1, SVG Export Plug-In . SVG Version: 6.00 Build 0)  -->
<svg version="1.1" id="Ebene_1" xmlns="http://www.w3.org/2000/svg" xmlns:xlink="http://www.w3.org/1999/xlink" x="0px" y="0px"
	 viewBox="0 0 500 500" style="enable-background:new 0 0 500 500;" xml:space="preserve">
<style type="text/css">
	.st0{fill:#FFFFFF;}
</style>
<g id="Twitter">
	<path id="white_background" class="st0" d="M448.81,148c0.3,4.41,0.3,8.82,0.3,13.26c0,135.55-103.19,291.87-291.87,291.87v-0.08
		C101.5,453.14,46.92,437.18,0,407.07c8.1,0.98,16.25,1.46,24.42,1.48c46.19,0.04,91.06-15.46,127.4-44
		c-43.9-0.83-82.39-29.45-95.84-71.24c15.38,2.97,31.22,2.36,46.31-1.77C54.44,281.88,20.01,239.84,20.01,191c0-0.45,0-0.87,0-1.3
		c14.26,7.94,30.23,12.35,46.56,12.84C21.49,172.42,7.6,112.45,34.82,65.57c52.08,64.09,128.93,103.05,211.42,107.17
		c-8.27-35.63,3.03-72.96,29.68-98.01c41.32-38.84,106.3-36.85,145.14,4.45c22.97-4.53,44.99-12.96,65.14-24.9
		c-7.66,23.75-23.68,43.92-45.09,56.73c20.33-2.4,40.2-7.84,58.91-16.15C486.23,115.5,468.88,133.48,448.81,148z"/>
</g>
</svg>
